<mxfile host="Electron" modified="2023-05-29T17:17:54.861Z" agent="Mozilla/5.0 (Windows NT 10.0; Win64; x64) AppleWebKit/537.36 (KHTML, like Gecko) draw.io/21.2.8 Chrome/112.0.5615.165 Electron/24.2.0 Safari/537.36" etag="BUwQvQyuHHIjDUwgC7Zn" version="21.2.8" type="device">
  <diagram name="Pagina-1" id="cRLQu5AnUjknGKx3u6Ge">
    <mxGraphModel dx="1276" dy="606" grid="1" gridSize="10" guides="1" tooltips="1" connect="1" arrows="1" fold="1" page="1" pageScale="1" pageWidth="827" pageHeight="1169" math="0" shadow="0">
      <root>
        <mxCell id="0" />
        <mxCell id="1" parent="0" />
        <mxCell id="oceK2sAhb7gHwZ_4tO9i-1" value="Start creation process" style="rounded=1;whiteSpace=wrap;html=1;" parent="1" vertex="1">
          <mxGeometry x="140" y="122.5" width="100" height="45" as="geometry" />
        </mxCell>
        <mxCell id="oceK2sAhb7gHwZ_4tO9i-2" value="" style="ellipse;html=1;fillColor=#000000;strokeColor=#ff0000;" parent="1" vertex="1">
          <mxGeometry x="40" y="130" width="30" height="30" as="geometry" />
        </mxCell>
        <mxCell id="oceK2sAhb7gHwZ_4tO9i-3" value="" style="ellipse;html=1;shape=endState;fillColor=#000000;strokeColor=#ff0000;" parent="1" vertex="1">
          <mxGeometry x="960" y="130" width="30" height="30" as="geometry" />
        </mxCell>
        <mxCell id="oceK2sAhb7gHwZ_4tO9i-4" value="Select songs" style="rounded=1;whiteSpace=wrap;html=1;" parent="1" vertex="1">
          <mxGeometry x="300" y="122.5" width="100" height="45" as="geometry" />
        </mxCell>
        <mxCell id="oceK2sAhb7gHwZ_4tO9i-6" value="" style="endArrow=open;endFill=1;endSize=12;html=1;rounded=0;exitX=1;exitY=0.5;exitDx=0;exitDy=0;entryX=0;entryY=0.5;entryDx=0;entryDy=0;" parent="1" source="oceK2sAhb7gHwZ_4tO9i-1" target="oceK2sAhb7gHwZ_4tO9i-4" edge="1">
          <mxGeometry width="160" relative="1" as="geometry">
            <mxPoint x="200" y="133" as="sourcePoint" />
            <mxPoint x="280" y="83" as="targetPoint" />
            <Array as="points" />
          </mxGeometry>
        </mxCell>
        <mxCell id="oceK2sAhb7gHwZ_4tO9i-8" value="" style="endArrow=open;endFill=1;endSize=12;html=1;rounded=0;exitX=1;exitY=0.5;exitDx=0;exitDy=0;entryX=0;entryY=0.5;entryDx=0;entryDy=0;" parent="1" source="oceK2sAhb7gHwZ_4tO9i-2" target="oceK2sAhb7gHwZ_4tO9i-1" edge="1">
          <mxGeometry width="160" relative="1" as="geometry">
            <mxPoint x="70" y="180" as="sourcePoint" />
            <mxPoint x="120" y="180" as="targetPoint" />
            <Array as="points" />
          </mxGeometry>
        </mxCell>
        <mxCell id="oceK2sAhb7gHwZ_4tO9i-9" value="submit playlist" style="rounded=1;whiteSpace=wrap;html=1;" parent="1" vertex="1">
          <mxGeometry x="800" y="122.5" width="100" height="45" as="geometry" />
        </mxCell>
        <mxCell id="oceK2sAhb7gHwZ_4tO9i-10" value="" style="endArrow=open;endFill=1;endSize=12;html=1;rounded=0;exitX=1;exitY=0.5;exitDx=0;exitDy=0;entryX=0;entryY=0.5;entryDx=0;entryDy=0;" parent="1" source="oceK2sAhb7gHwZ_4tO9i-4" target="zcPNVEETi71oYV14T8bZ-3" edge="1">
          <mxGeometry width="160" relative="1" as="geometry">
            <mxPoint x="570" y="145" as="sourcePoint" />
            <mxPoint x="510" y="155" as="targetPoint" />
            <Array as="points" />
          </mxGeometry>
        </mxCell>
        <mxCell id="oceK2sAhb7gHwZ_4tO9i-11" value="" style="endArrow=open;endFill=1;endSize=12;html=1;rounded=0;exitX=1;exitY=0.5;exitDx=0;exitDy=0;entryX=0;entryY=0.5;entryDx=0;entryDy=0;" parent="1" source="oceK2sAhb7gHwZ_4tO9i-9" target="oceK2sAhb7gHwZ_4tO9i-3" edge="1">
          <mxGeometry width="160" relative="1" as="geometry">
            <mxPoint x="590" y="155" as="sourcePoint" />
            <mxPoint x="650" y="155" as="targetPoint" />
            <Array as="points" />
          </mxGeometry>
        </mxCell>
        <mxCell id="zcPNVEETi71oYV14T8bZ-1" value="add playlist title" style="rounded=1;whiteSpace=wrap;html=1;" parent="1" vertex="1">
          <mxGeometry x="630" y="122.5" width="100" height="45" as="geometry" />
        </mxCell>
        <mxCell id="zcPNVEETi71oYV14T8bZ-2" value="" style="endArrow=open;endFill=1;endSize=12;html=1;rounded=0;exitX=1;exitY=0.5;exitDx=0;exitDy=0;entryX=0;entryY=0.5;entryDx=0;entryDy=0;" parent="1" source="zcPNVEETi71oYV14T8bZ-1" target="oceK2sAhb7gHwZ_4tO9i-9" edge="1">
          <mxGeometry width="160" relative="1" as="geometry">
            <mxPoint x="424" y="155" as="sourcePoint" />
            <mxPoint x="470" y="155" as="targetPoint" />
            <Array as="points" />
          </mxGeometry>
        </mxCell>
        <mxCell id="zcPNVEETi71oYV14T8bZ-3" value="check if you selected at least 1 song" style="rounded=1;whiteSpace=wrap;html=1;" parent="1" vertex="1">
          <mxGeometry x="470" y="122.5" width="100" height="45" as="geometry" />
        </mxCell>
        <mxCell id="zcPNVEETi71oYV14T8bZ-6" value="" style="endArrow=open;endFill=1;endSize=12;html=1;rounded=0;exitX=1;exitY=0.5;exitDx=0;exitDy=0;entryX=0;entryY=0.5;entryDx=0;entryDy=0;" parent="1" source="zcPNVEETi71oYV14T8bZ-3" target="zcPNVEETi71oYV14T8bZ-1" edge="1">
          <mxGeometry width="160" relative="1" as="geometry">
            <mxPoint x="410" y="155" as="sourcePoint" />
            <mxPoint x="450" y="155" as="targetPoint" />
            <Array as="points" />
          </mxGeometry>
        </mxCell>
      </root>
    </mxGraphModel>
  </diagram>
</mxfile>
